<?xml version="1.0" encoding="UTF-8"?>
<svg width="637px" height="330px" viewBox="0 0 637 330" version="1.1" xmlns="http://www.w3.org/2000/svg" xmlns:xlink="http://www.w3.org/1999/xlink">
    <!-- Generator: Sketch 45.2 (43514) - http://www.bohemiancoding.com/sketch -->
    <title>flex-8</title>
    <desc>Created with Sketch.</desc>
    <defs>
        <rect id="path-1" x="0" y="0" width="637" height="330"></rect>
        <mask id="mask-2" maskContentUnits="userSpaceOnUse" maskUnits="objectBoundingBox" x="0" y="0" width="637" height="330" fill="white">
            <use xlink:href="#path-1"></use>
        </mask>
    </defs>
    <g id="Page-1" stroke="none" stroke-width="1" fill="none" fill-rule="evenodd">
        <g id="flex-8">
            <use id="Rectangle" stroke="#979797" mask="url(#mask-2)" stroke-width="2" stroke-dasharray="5,5" xlink:href="#path-1"></use>
            <path d="M97.5,65.5 L237.499144,65.9895075" id="Line" stroke="#8BC94A" fill="#FECC5C" fill-rule="nonzero" stroke-linecap="square"></path>
            <polygon id="Line-decoration-1" stroke="#8BC94A" fill="#8BC94A" fill-rule="nonzero" stroke-linecap="square" points="237.499144 65.9895075 226.7097 62.9517638 226.688721 68.9517272"></polygon>
            <text id="Row" fill="#8BC94A" font-family="Lato-Bold, Lato" font-size="16" font-weight="bold">
                <tspan x="148" y="55">Row</tspan>
            </text>
            <text id="Column" fill="#8BC94A" font-family="Lato-Bold, Lato" font-size="16" font-weight="bold">
                <tspan x="345" y="55">Col</tspan>
                <tspan x="369.16" y="55">u</tspan>
                <tspan x="378.256" y="55">mn</tspan>
            </text>
            <text id="Column-Reverse" fill="#8BC94A" font-family="Lato-Bold, Lato" font-size="16" font-weight="bold">
                <tspan x="461" y="55">Co</tspan>
                <tspan x="480.824" y="55">lu</tspan>
                <tspan x="494.256" y="55">mn-Reverse</tspan>
            </text>
            <text id="Row-Reverse" fill="#8BC94A" font-family="Lato-Bold, Lato" font-size="16" font-weight="bold">
                <tspan x="134" y="196">Row-Reverse</tspan>
            </text>
            <path d="M242.5,206.5 L102.5,206.5" id="Line-2" stroke="#8BC94A" fill="#FECC5C" fill-rule="nonzero" stroke-linecap="square"></path>
            <polygon id="Line-2-decoration-1" stroke="#8BC94A" fill="#8BC94A" fill-rule="nonzero" stroke-linecap="square" points="102.5 206.5 113.3 209.5 113.3 203.5"></polygon>
            <path d="M430,117 L430,267" id="Line-3" stroke="#8BC94A" fill="#FECC5C" fill-rule="nonzero" stroke-linecap="square"></path>
            <polygon id="Line-3-decoration-1" stroke="#8BC94A" fill="#8BC94A" fill-rule="nonzero" stroke-linecap="square" points="430 267 433 256.2 427 256.2"></polygon>
            <path d="M580,267 L580,117" id="Line-4" stroke="#8BC94A" fill="#FECC5C" fill-rule="nonzero" stroke-linecap="square"></path>
            <polygon id="Line-4-decoration-1" stroke="#8BC94A" fill="#8BC94A" fill-rule="nonzero" stroke-linecap="square" points="580 117 577 127.8 583 127.8"></polygon>
            <g id="Group-3" transform="translate(53.000000, 85.000000)" fill-rule="nonzero" fill="#1FAADB">
                <rect id="Rectangle-2" x="0.28125" y="5.68434188e-14" width="68.9102376" height="62" rx="2"></rect>
                <rect id="Rectangle-2" x="79.0358073" y="5.68434188e-14" width="68.9102376" height="62" rx="2"></rect>
                <rect id="Rectangle-2" x="157.790365" y="5.68434188e-14" width="68.9102376" height="62" rx="2"></rect>
            </g>
            <g id="Group-4" transform="translate(53.000000, 229.000000)" fill-rule="nonzero" fill="#1FAADB">
                <rect id="Rectangle-2" x="0.28125" y="0" width="68.9102376" height="62" rx="2"></rect>
                <rect id="Rectangle-2" x="79.0358073" y="0" width="68.9102376" height="62" rx="2"></rect>
                <rect id="Rectangle-2" x="157.790365" y="0" width="68.9102376" height="62" rx="2"></rect>
            </g>
            <g id="Group" transform="translate(340.000000, 85.000000)" fill-rule="nonzero" fill="#1FAADB">
                <rect id="Rectangle-2" x="0" y="0" width="68.9102376" height="62" rx="2"></rect>
                <rect id="Rectangle-2" x="0" y="72" width="68.9102376" height="62" rx="2"></rect>
                <rect id="Rectangle-2" x="0" y="144" width="68.9102376" height="62" rx="2"></rect>
            </g>
            <g id="Group-2" transform="translate(490.000000, 85.000000)" fill-rule="nonzero" fill="#1FAADB">
                <rect id="Rectangle-2" x="0" y="0" width="68.9102376" height="62" rx="2"></rect>
                <rect id="Rectangle-2" x="0" y="72" width="68.9102376" height="62" rx="2"></rect>
                <rect id="Rectangle-2" x="0" y="144" width="68.9102376" height="62" rx="2"></rect>
            </g>
        </g>
    </g>
</svg>